<?xml version="1.0" standalone="no"?>
<!DOCTYPE svg PUBLIC "-//W3C//DTD SVG 20010904//EN"
 "http://www.w3.org/TR/2001/REC-SVG-20010904/DTD/svg10.dtd">
<svg version="1.0" xmlns="http://www.w3.org/2000/svg"
 width="270.000000pt" height="600.000000pt" viewBox="0 0 270.000000 600.000000"
 preserveAspectRatio="xMidYMid meet">
<g transform="translate(0.000000,600.000000) scale(0.100000,-0.100000)"
fill="#2b7904" stroke="none">
<path d="M1140 5887 c-3 -2 -86 -7 -185 -10 -302 -11 -520 -32 -562 -55 -14
-8 -13 -12 10 -26 35 -23 125 -24 266 -3 63 9 134 18 158 19 39 1 48 7 44 31
0 4 6 7 15 7 14 0 14 -3 4 -15 -11 -13 -3 -15 59 -15 39 0 71 4 71 8 0 5 7 17
16 28 8 10 13 14 10 8 -3 -7 -1 -25 5 -42 9 -26 16 -31 57 -37 69 -9 408 -9
472 1 30 4 60 8 65 9 6 0 9 17 9 38 -1 20 2 37 6 37 13 0 30 -27 22 -36 -4 -4
1 -3 10 4 13 11 20 11 38 0 17 -11 22 -11 30 2 8 13 13 13 31 2 11 -8 18 -9
14 -3 -3 6 -1 11 4 11 6 0 11 -5 11 -10 0 -7 6 -7 19 0 13 7 22 7 26 0 4 -7
13 -7 24 0 12 6 22 5 29 -2 15 -15 44 -20 35 -5 -4 6 0 8 10 4 9 -3 19 -2 22
3 12 20 35 10 35 -15 0 -19 5 -25 23 -26 12 0 32 -2 44 -5 35 -6 37 -6 51 -5
9 1 11 8 6 23 -6 21 -5 21 10 9 13 -11 22 -12 42 -2 16 7 23 7 19 1 -4 -7 3
-9 19 -6 16 3 25 0 23 -7 -1 -6 7 -12 18 -14 17 -4 18 -2 5 7 -13 10 -13 11 2
7 9 -3 18 -1 20 5 3 7 12 4 24 -8 15 -15 26 -19 42 -13 12 5 22 13 22 19 0 26
-77 36 -435 60 -156 10 -808 24 -815 17z m141 -31 c9 -4 76 -5 147 -2 107 4
133 2 143 -10 7 -8 15 -11 18 -7 3 5 20 6 36 2 17 -4 22 -7 12 -8 -10 0 -16
-5 -13 -10 4 -5 -4 -7 -16 -4 -17 3 -19 2 -9 -5 20 -15 -55 -19 -264 -15 -259
5 -266 6 -264 46 1 17 2 18 6 5 2 -10 8 -18 13 -18 5 0 17 -3 27 -6 17 -6 17
-6 -1 8 -12 9 -15 17 -8 22 13 8 44 -3 37 -14 -2 -4 7 -7 20 -7 23 0 24 1 8
13 -16 12 -16 12 6 7 14 -4 22 -2 18 4 -7 10 58 10 84 -1z m783 -18 c-3 -5 6
-7 20 -4 22 4 56 -17 45 -29 -4 -4 -90 14 -98 21 -7 6 9 21 23 21 8 0 13 -4
10 -9z m-1389 -7 c3 -5 -5 -7 -17 -3 -15 3 -19 2 -14 -7 4 -6 4 -11 -1 -10 -4
1 -16 -1 -26 -6 -11 -5 -23 -3 -30 5 -10 10 -8 12 6 7 10 -4 20 -1 23 6 5 15
50 21 59 8z m65 -3 c0 -5 -11 -8 -25 -8 -14 0 -25 4 -25 9 0 5 11 8 25 7 14 0
25 -4 25 -8z m-198 -20 c-5 -19 -7 -20 -10 -6 -3 16 -5 16 -18 3 -20 -19 -35
-19 -28 0 4 8 10 13 14 10 5 -3 11 -1 15 5 13 20 33 11 27 -12z"/>
<path d="M1204 5848 c-11 -17 6 -22 22 -7 13 14 13 16 -1 16 -9 0 -18 -4 -21
-9z"/>
<path d="M1264 5853 c3 -6 -1 -13 -11 -16 -13 -3 -12 -5 6 -6 15 -1 21 -6 18
-14 -4 -11 8 -13 56 -11 78 4 100 8 104 20 2 5 -27 7 -69 4 -63 -5 -74 -3 -91
15 -11 11 -17 15 -13 8z"/>
<path d="M1535 5840 c-3 -5 -14 -7 -25 -5 -12 2 -18 0 -15 -6 4 -5 11 -7 16
-4 5 4 9 0 9 -7 0 -8 4 -7 11 4 5 10 16 15 24 12 8 -4 15 -4 15 -1 0 10 -29
16 -35 7z"/>
<path d="M1451 5823 c0 -12 2 -13 6 -5 4 10 8 10 19 1 12 -10 13 -9 8 5 -8 21
-34 21 -33 -1z"/>
<path d="M360 5752 c0 -34 5 -64 11 -68 20 -12 3 -93 -30 -140 -17 -24 -26
-44 -21 -44 6 0 10 -5 10 -11 0 -6 -6 -9 -14 -6 -16 6 -74 -73 -107 -148 -18
-41 -23 -69 -23 -155 -1 -153 14 -1454 19 -1665 2 -99 7 -414 10 -700 3 -286
8 -587 10 -670 2 -82 7 -447 11 -810 7 -775 2 -733 103 -834 36 -37 93 -81
126 -98 33 -18 65 -41 72 -51 6 -11 45 -42 87 -70 124 -83 299 -132 571 -158
169 -16 290 -12 500 17 254 34 410 91 516 187 30 26 77 61 104 77 90 51 152
111 184 179 l30 62 5 295 c3 162 8 467 11 679 3 212 8 520 10 685 13 799 28
2081 29 2520 1 489 1 490 -21 532 -24 44 -48 68 -36 36 3 -10 3 -15 -1 -11 -4
3 -9 18 -10 33 -2 14 -12 36 -23 48 -74 83 -117 195 -87 228 16 17 20 109 4
109 -13 0 -32 -38 -24 -51 3 -6 3 -25 0 -44 -10 -51 -46 -62 -276 -84 -232
-23 -582 -34 -870 -28 -258 6 -532 20 -610 31 -199 29 -247 44 -235 74 4 9 7
24 6 32 -1 8 -2 22 -2 32 0 9 -9 24 -20 34 -19 17 -19 16 -19 -44z m138 -127
l42 -8 0 -47 c0 -30 6 -52 15 -60 23 -19 29 -5 10 24 -10 16 -14 33 -10 47 7
20 11 21 74 14 36 -5 76 -8 89 -9 12 -1 22 -5 22 -10 0 -5 7 -3 15 4 8 7 15 8
15 3 0 -5 17 -9 38 -9 20 -1 71 -4 112 -8 107 -11 709 -15 810 -5 47 4 148 12
225 19 77 6 167 13 201 16 50 5 62 3 67 -10 7 -18 -11 -66 -25 -66 -5 0 -16
-16 -24 -36 -12 -29 -18 -34 -36 -28 -14 4 -18 2 -14 -5 4 -6 0 -11 -10 -11
-13 0 -14 -3 -5 -13 6 -8 8 -17 4 -20 -3 -4 2 -17 13 -29 l19 -23 -24 20 c-13
11 -27 30 -32 43 -5 12 -16 25 -24 28 -27 11 -65 -6 -75 -31 -5 -14 -12 -25
-16 -25 -3 0 -4 7 0 15 3 9 0 15 -8 15 -8 0 -17 7 -20 16 -5 14 -8 14 -28 0
-16 -12 -25 -13 -35 -4 -11 8 -21 6 -43 -10 -32 -24 -45 -28 -35 -12 4 6 3 10
-2 9 -19 -3 -34 2 -29 10 7 10 -13 9 -31 -2 -7 -4 -13 0 -16 10 -3 13 -5 12
-6 -5 0 -13 -5 -20 -11 -17 -6 4 -10 3 -9 -2 4 -23 -2 -35 -16 -29 -22 8 -18
-2 5 -14 11 -6 20 -7 19 -3 -5 19 15 43 35 43 19 0 22 -6 23 -41 1 -23 9 -52
18 -65 20 -31 19 -34 -10 -34 -18 0 -24 5 -23 18 4 33 -14 103 -25 99 -12 -4
-12 -52 2 -129 0 -5 4 -7 9 -7 4 1 14 1 22 0 13 -1 13 -2 0 -11 -9 -6 -10 -10
-3 -10 7 0 21 9 32 21 11 12 25 18 31 14 9 -6 9 -2 1 13 -14 27 -14 62 1 62 6
0 8 3 4 7 -4 5 -15 -1 -23 -12 -16 -20 -15 -16 4 32 5 12 3 14 -8 8 -8 -4 -11
-5 -7 0 4 4 2 15 -5 24 -10 14 -10 14 5 3 9 -8 23 -10 29 -6 9 5 10 2 6 -9 -3
-10 -3 -17 2 -17 4 0 8 -12 7 -27 -1 -16 4 -27 11 -26 13 3 12 -22 -2 -34 -4
-4 -5 -3 -1 4 8 14 -10 28 -18 14 -8 -12 11 -24 44 -27 14 -1 19 0 12 3 -6 3
-10 9 -7 14 7 10 -14 89 -27 103 -11 14 -10 26 3 26 7 0 27 -17 46 -37 30 -34
33 -35 27 -13 -4 14 -11 27 -15 28 -19 7 -8 23 14 20 12 -2 21 -9 19 -16 -10
-49 44 -142 64 -110 4 7 3 8 -4 4 -7 -4 -12 -2 -12 3 0 6 6 11 14 11 9 0 12 7
9 20 -3 11 -9 20 -14 20 -5 0 -6 -7 -3 -15 4 -8 1 -15 -7 -15 -7 0 -10 3 -6 6
3 3 2 17 -4 31 -6 16 -6 22 1 18 6 -3 10 0 11 7 0 9 2 9 6 -2 4 -8 12 -20 18
-27 7 -7 11 -26 10 -42 -1 -17 0 -30 4 -29 3 1 14 -2 24 -6 27 -13 67 2 79 29
11 26 34 36 25 12 -5 -14 52 -43 80 -41 31 3 34 4 29 13 -7 10 9 8 36 -4 10
-4 15 -12 11 -18 -3 -6 -1 -7 5 -3 14 9 74 -43 65 -57 -4 -6 -1 -7 6 -2 10 6
12 -77 7 -401 -4 -225 -9 -485 -11 -579 -7 -229 -7 -937 0 -943 3 -3 5 136 5
309 0 173 5 600 11 949 5 349 8 649 5 665 -4 21 -20 40 -53 63 -26 17 -43 32
-38 33 32 2 51 10 59 22 9 13 13 13 32 0 31 -20 53 -6 24 14 -58 41 -106 150
-63 141 10 -2 19 -12 21 -22 3 -11 0 -16 -7 -12 -8 5 -7 -2 1 -21 14 -34 39
-65 46 -58 3 3 -3 13 -12 24 -12 13 -14 21 -6 26 6 4 19 -12 31 -39 21 -50 24
-52 35 -34 5 7 2 9 -7 4 -8 -4 -5 0 5 8 28 23 32 21 56 -29 17 -36 23 -70 27
-171 3 -74 2 -125 -3 -121 -7 4 -11 -102 -4 -123 2 -5 2 -205 0 -205 0 0 -2
-157 -4 -350 -3 -192 -7 -552 -11 -800 -3 -247 -8 -619 -11 -825 -2 -206 -7
-514 -9 -685 -3 -170 -7 -438 -9 -595 -8 -573 -7 -533 -27 -561 -10 -15 -30
-30 -43 -33 -17 -4 -26 -15 -31 -36 -4 -17 -11 -28 -16 -24 -5 3 -9 -21 -9
-56 0 -38 4 -59 10 -55 5 3 10 -1 10 -9 0 -8 -10 -18 -21 -21 -17 -6 -19 -9
-8 -16 7 -4 16 -5 19 -1 11 15 44 37 36 25 -5 -9 -2 -11 8 -7 9 3 14 10 11 14
-3 5 8 18 23 29 l29 20 -7 -37 c-11 -53 -21 -73 -32 -66 -6 4 -9 1 -6 -7 3 -8
-11 -26 -31 -41 -20 -15 -41 -32 -48 -38 -7 -5 -14 -10 -16 -10 -9 0 -19 231
-10 243 5 6 6 55 3 107 l-6 95 -2 -86 c-2 -90 -14 -118 -47 -105 -9 3 -13 2
-10 -3 3 -5 -5 -17 -17 -25 -19 -13 -22 -24 -20 -71 1 -34 7 -61 16 -70 18
-18 33 -20 18 -2 -12 15 -13 125 -1 133 5 3 9 -25 9 -63 0 -37 5 -75 10 -83 8
-13 10 -13 10 0 0 11 3 11 12 2 15 -15 18 -52 4 -52 -7 0 -6 -3 1 -8 18 -11
-59 -47 -177 -84 -103 -32 -230 -59 -242 -51 -5 2 -8 -1 -8 -7 0 -6 -4 -9 -9
-6 -5 3 -33 2 -62 -3 -99 -17 -150 -21 -143 -10 4 7 -3 6 -16 -1 -18 -10 -24
-9 -31 1 -7 12 -9 12 -9 0 0 -7 -6 -11 -15 -7 -8 3 -15 0 -15 -6 0 -7 -5 -6
-15 2 -12 10 -15 10 -15 -1 0 -11 -2 -11 -10 1 -5 8 -10 11 -10 5 0 -6 -33
-11 -75 -12 -42 -1 -73 2 -70 7 3 5 1 12 -5 15 -6 4 -9 1 -8 -6 2 -7 -1 -13
-7 -14 -5 0 -15 -3 -21 -7 -6 -4 -19 -1 -30 6 -16 12 -20 12 -32 -3 -12 -14
-13 -14 -9 5 2 12 -1 21 -8 21 -7 0 -11 -6 -8 -14 7 -17 -28 -17 -46 0 -11 10
-13 10 -7 0 8 -15 -3 -17 -24 -3 -9 6 -17 5 -22 -3 -5 -8 -8 -9 -8 -1 0 8 -13
10 -35 7 -21 -3 -35 0 -35 6 0 6 -6 9 -12 7 -34 -11 -72 -16 -61 -8 7 4 -16 8
-53 10 -36 1 -72 6 -82 11 -10 6 -23 6 -35 -1 -11 -6 -17 -6 -14 -1 4 6 -31
16 -79 23 -47 7 -87 17 -90 22 -3 4 -13 8 -22 8 -10 0 -33 8 -52 18 -19 9 -45
17 -57 16 -13 -1 -23 2 -23 7 0 8 -40 24 -52 21 -3 -1 -9 11 -12 26 -7 34 -5
96 3 85 3 -4 15 -10 26 -11 11 -2 33 -11 50 -19 16 -9 27 -12 22 -8 -4 5 -1
15 7 24 7 9 16 33 19 53 7 44 -21 88 -56 88 -33 0 -67 11 -62 20 3 4 -1 10 -9
13 -10 4 -14 31 -15 103 -3 137 -11 132 -11 -6 0 -116 -5 -126 -34 -68 -7 13
-21 23 -32 23 -22 0 -56 23 -50 34 2 3 0 15 -5 26 -6 14 -8 8 -6 -23 2 -37 7
-46 36 -65 30 -18 34 -19 28 -4 -3 9 -2 17 3 17 6 0 10 -10 10 -23 0 -17 9
-26 36 -36 19 -7 38 -19 41 -27 3 -8 9 -12 13 -9 5 3 21 0 36 -5 21 -8 29 -8
36 2 9 15 9 15 12 -64 1 -27 -2 -48 -6 -48 -5 0 -9 19 -9 43 l-2 42 -7 -40 -7
-40 -3 45 -3 45 -6 -38 -6 -38 -70 35 c-38 19 -71 31 -73 26 -7 -19 -24 -10
-19 10 6 22 -8 28 -16 8 -3 -8 -6 -6 -6 5 -1 10 -9 26 -19 37 -16 18 -18 50
-21 387 -2 202 -5 413 -6 468 -1 55 -5 330 -9 610 -10 829 -16 1266 -21 1498
-4 170 -2 217 7 217 9 0 10 2 2 8 -8 5 -14 151 -18 502 -11 756 -10 831 9 887
8 24 61 54 81 46 12 -4 48 49 49 72 0 6 4 16 8 22 4 7 3 22 -3 33 -6 11 -7 20
-2 20 5 0 15 21 22 48 17 62 27 81 42 78 7 -2 32 -7 56 -11z m1858 1 c8 -8 14
-23 14 -33 0 -11 4 -23 9 -28 5 -6 11 -19 13 -30 1 -11 11 -26 20 -33 17 -13
14 -42 -4 -42 -6 0 -4 8 3 17 8 9 9 14 3 10 -6 -3 -25 -2 -43 3 -19 5 -29 5
-26 -1 6 -9 2 -10 -56 -13 -42 -1 -72 -23 -64 -45 3 -9 -6 -3 -20 12 -29 33
-30 40 -10 57 8 7 15 9 15 5 0 -4 7 -2 15 5 10 8 15 30 15 62 0 45 2 50 20 45
11 -3 23 -1 26 5 3 5 12 7 20 4 7 -3 16 -1 19 4 8 13 14 13 31 -4z m-2022
-194 c-8 -18 -20 -32 -25 -32 -5 0 -9 -7 -9 -16 0 -8 -4 -12 -10 -9 -10 6 2
33 34 72 26 30 30 24 10 -15z m2130 0 c24 -36 37 -78 17 -56 -10 10 -51 82
-51 89 0 11 9 3 34 -33z m-175 -14 l34 -33 -22 33 c-18 26 -20 32 -7 32 9 0
16 -6 16 -13 0 -7 14 -35 31 -61 36 -58 29 -75 -12 -26 -29 35 -41 32 -14 -4
8 -11 15 -23 15 -28 0 -10 -37 -5 -47 7 -5 4 -2 5 5 1 6 -4 12 -4 12 -1 0 13
-40 94 -50 100 -11 7 -14 25 -3 25 4 0 23 -15 42 -32z m-91 2 c3 -9 -1 -11
-12 -7 -17 7 -20 -1 -7 -21 4 -7 14 -12 21 -10 8 2 16 -5 18 -16 2 -11 0 -16
-7 -12 -14 9 -14 -4 0 -24 8 -11 12 -12 16 -2 7 17 23 5 23 -17 0 -14 -6 -17
-28 -13 -23 3 -31 12 -45 52 -10 27 -24 56 -32 64 -8 8 -15 17 -15 21 0 12 64
-1 68 -15z m-119 -15 c3 -17 1 -18 -13 -6 -9 8 -20 11 -24 7 -4 -4 2 -14 13
-22 46 -33 56 -46 53 -67 -4 -30 -43 -35 -58 -8 -12 23 -1 28 18 9 6 -6 15 -8
19 -5 4 4 -10 21 -30 38 -47 39 -52 82 -10 77 18 -2 29 -10 32 -23z m166 -15
c-3 -4 2 -13 10 -20 8 -7 15 -18 15 -24 -1 -11 -24 15 -41 46 -7 14 -6 16 6
12 8 -3 13 -10 10 -14z m264 -4537 c0 -31 -2 -34 -9 -18 -8 18 -9 18 -9 -5 -1
-15 4 -31 10 -37 11 -11 -17 -83 -33 -83 -4 0 -8 30 -8 66 0 56 4 71 23 89 12
13 23 23 25 24 1 1 2 -16 1 -36z m-2242 -70 c-2 -16 -4 -5 -4 22 0 28 2 40 4
28 2 -13 2 -35 0 -50z m2172 -89 c-21 -26 -29 -14 -29 43 0 40 5 62 18 76 16
19 17 17 20 -43 2 -37 -2 -67 -9 -76z m-109 41 c0 -8 -5 -15 -11 -15 -8 0 -8
-4 0 -14 15 -18 10 -78 -6 -84 -10 -3 -13 14 -13 62 0 52 3 66 15 66 8 0 15
-7 15 -15z m-2006 -65 c11 -8 31 -13 45 -11 14 2 21 -1 17 -8 -4 -6 -1 -9 7
-5 22 8 47 -34 47 -78 0 -36 -16 -60 -29 -41 -3 6 -17 16 -29 22 -40 21 -72
54 -72 73 0 11 -4 16 -10 13 -6 -4 -10 11 -9 37 0 24 3 36 6 28 4 -8 16 -22
27 -30z m74 -158 c143 -85 405 -153 697 -182 161 -15 582 -5 738 19 300 47
523 125 625 221 41 39 33 15 -11 -31 -49 -52 -120 -109 -136 -109 -6 0 -11 -4
-11 -8 0 -4 -12 -13 -27 -19 -62 -26 -137 -85 -124 -99 3 -4 0 -4 -6 0 -7 4
-45 -4 -83 -18 -39 -15 -80 -26 -91 -26 -10 0 -19 -4 -19 -9 0 -11 67 3 117
24 32 13 34 13 23 0 -7 -8 -16 -15 -21 -15 -4 0 -20 -5 -36 -12 -15 -6 -30
-12 -33 -13 -3 0 -15 -6 -26 -13 -12 -6 -24 -9 -27 -6 -3 3 -19 -2 -36 -10
-36 -19 -45 -20 -35 -4 5 8 2 9 -12 4 -146 -56 -434 -83 -674 -63 -52 5 -97
10 -100 12 -7 4 -47 12 -100 21 -78 11 -140 28 -140 36 0 5 -9 7 -19 3 -11 -3
-22 -1 -26 5 -3 5 -17 10 -31 10 -13 0 -24 4 -24 9 0 5 -13 12 -30 16 -16 4
-30 10 -30 14 0 5 24 2 53 -6 70 -20 98 -23 91 -12 -3 5 -11 8 -17 7 -16 -3
-217 64 -217 73 0 4 10 5 23 3 12 -2 -4 9 -36 24 -32 16 -62 32 -65 38 -4 5
-21 16 -37 25 -49 25 -78 43 -95 57 -41 35 -110 107 -110 116 0 5 11 -3 26
-17 14 -14 55 -43 92 -65z"/>
<path d="M390 5489 c0 -3 12 -11 26 -18 21 -9 24 -14 14 -26 -7 -8 -16 -13
-20 -10 -4 2 -21 -20 -37 -51 -28 -52 -31 -54 -46 -39 -15 15 -17 15 -17 1 0
-9 5 -16 11 -16 5 0 7 -5 4 -10 -8 -13 15 -9 30 5 6 6 17 19 24 30 12 20 12
20 6 -1 -5 -20 23 -57 41 -53 31 5 37 -3 14 -21 -14 -10 -21 -22 -16 -27 5 -4
11 -2 13 5 3 6 11 12 19 12 8 0 14 5 14 11 0 5 4 8 9 5 5 -4 11 -2 13 3 5 14
43 18 41 4 -2 -7 3 -13 10 -14 31 -3 63 3 72 14 11 13 51 37 61 37 4 0 1 -7
-6 -16 -18 -21 7 -45 51 -49 40 -4 107 24 88 36 -7 4 -14 18 -16 31 -2 18 -1
20 7 8 8 -13 10 -12 10 3 0 10 5 15 10 12 6 -3 10 -1 10 4 0 6 -4 11 -10 11
-6 0 -6 9 0 26 12 31 12 37 2 30 -5 -3 -19 4 -31 15 -21 19 -23 20 -47 4 -27
-18 -54 -17 -69 3 -6 7 -28 14 -50 15 -37 2 -41 -1 -63 -40 -25 -45 -44 -57
-35 -23 3 11 9 20 14 20 5 0 2 11 -7 25 -15 23 -44 35 -44 17 0 -4 -9 -8 -20
-9 -11 -1 -18 2 -15 8 4 5 1 9 -5 9 -6 0 -8 5 -4 12 4 7 3 8 -4 4 -7 -4 -12
-3 -12 3 0 5 -9 9 -20 8 -11 -1 -20 -4 -20 -8z m113 -86 c-8 -27 -17 -58 -20
-70 -3 -13 -12 -23 -20 -23 -11 0 -13 7 -9 25 8 30 -10 34 -19 5 -3 -11 -10
-20 -15 -20 -23 0 -14 19 31 69 27 30 49 58 49 63 0 5 4 7 9 4 5 -4 2 -27 -6
-53z m115 20 c-19 -22 -48 -78 -48 -93 0 -27 21 -4 47 49 15 33 34 60 41 60
16 1 16 1 -15 -55 -38 -71 -63 -96 -80 -83 -18 15 -17 26 9 86 16 37 29 53 42
53 17 0 18 -2 4 -17z m82 -18 c-7 -8 -9 -19 -5 -25 3 -5 -1 -13 -9 -16 -9 -3
-13 -11 -9 -17 3 -5 1 -7 -4 -4 -6 4 -13 0 -17 -8 -3 -8 -11 -15 -18 -15 -9 0
-8 3 2 10 8 5 11 10 5 10 -5 0 -1 7 10 16 11 8 20 18 20 22 2 23 18 51 26 46
6 -4 6 -11 -1 -19z m96 3 c3 -5 -2 -21 -12 -36 -10 -15 -17 -41 -15 -59 2 -25
-2 -33 -13 -33 -12 0 -16 10 -17 38 l-1 37 -10 -32 c-7 -22 -17 -33 -29 -33
-11 0 -19 5 -19 10 0 6 4 10 9 10 8 0 33 59 46 106 4 13 52 7 61 -8z"/>
<path d="M837 5442 c5 -11 7 -11 14 0 7 10 9 10 10 -2 0 -8 2 -25 3 -37 2 -18
0 -20 -11 -11 -7 6 -16 8 -20 4 -4 -3 2 -13 13 -22 10 -8 13 -13 7 -9 -9 4
-13 -4 -13 -27 0 -26 -3 -30 -11 -18 -9 12 -10 11 -6 -8 3 -14 -1 -26 -11 -33
-15 -10 -15 -10 1 -5 9 3 17 0 17 -5 0 -6 8 -9 19 -6 10 2 26 0 35 -5 11 -6
16 -5 16 5 0 8 7 18 16 21 8 3 12 10 9 16 -3 5 -1 10 4 10 6 0 11 8 11 18 0
14 -2 15 -10 2 -13 -20 -12 -10 1 28 7 20 15 29 25 25 10 -4 13 0 8 13 -5 18
-5 18 6 1 8 -13 9 -22 2 -29 -6 -6 -8 -17 -5 -26 5 -11 3 -13 -8 -7 -12 7 -12
6 -1 -7 10 -13 10 -19 -2 -31 -14 -13 -14 -16 0 -21 8 -3 13 -10 10 -15 -7
-10 46 -23 54 -13 3 4 14 7 25 6 28 0 66 17 59 27 -3 5 -1 9 5 9 5 0 8 8 6 18
-1 9 3 23 9 31 9 12 8 13 -3 7 -9 -6 -8 0 4 17 23 36 4 66 -42 62 -18 -2 -30
1 -27 6 3 5 -1 6 -9 3 -8 -3 -18 -1 -22 5 -3 6 -12 11 -18 11 -7 0 -6 -4 3
-10 12 -8 11 -10 -7 -10 -17 0 -21 -4 -16 -17 6 -15 4 -16 -8 -6 -12 10 -18
10 -29 0 -10 -10 -12 -9 -7 5 3 10 2 20 -4 23 -5 4 -6 11 -3 17 4 5 -5 2 -20
-7 -25 -17 -26 -17 -20 1 5 18 5 18 -10 0 -14 -17 -16 -17 -16 -4 0 10 -8 16
-19 15 -12 -1 -17 -6 -14 -15z m85 -28 c4 -3 0 -17 -8 -32 -8 -15 -17 -44 -20
-64 -5 -28 -11 -38 -25 -38 -23 0 -23 -1 -3 39 9 18 18 47 20 65 1 17 3 32 3
34 2 4 28 2 33 -4z m118 -18 c0 -7 6 -26 14 -40 15 -30 25 -17 20 26 -3 27 4
30 44 19 1 -1 -4 -11 -12 -23 -8 -13 -18 -42 -22 -65 -4 -24 -10 -43 -14 -43
-4 0 -15 18 -25 41 -18 38 -19 39 -27 18 -5 -12 -6 -30 -3 -40 5 -14 1 -19
-14 -19 -11 0 -23 5 -26 10 -3 6 -2 10 2 10 13 0 35 83 27 103 -4 13 -1 17 15
17 12 0 21 -6 21 -14z"/>
<path d="M1200 5420 c-24 -18 -31 -37 -31 -90 -1 -14 -5 -30 -10 -36 -7 -8 2
-22 28 -43 23 -19 40 -27 44 -20 5 8 8 8 13 0 4 -6 12 -11 17 -11 6 0 7 5 4
10 -3 6 -2 10 3 10 13 0 34 59 26 72 -4 6 0 14 7 19 11 6 11 11 1 21 -6 6 -12
17 -12 23 0 5 5 3 10 -5 9 -13 10 -13 10 0 0 9 -13 27 -30 42 -23 20 -30 23
-30 10 0 -14 -1 -14 -12 1 -12 15 -15 15 -38 -3z m80 -43 c0 -16 -3 -18 -12
-9 -19 19 -38 14 -38 -9 0 -15 4 -19 16 -15 23 9 37 -3 23 -20 -9 -11 -15 -11
-25 -3 -11 9 -14 6 -14 -15 0 -28 9 -33 28 -14 9 9 12 7 12 -10 0 -23 -9 -26
-58 -16 -27 6 -30 9 -21 25 5 11 11 41 12 67 l2 47 37 -4 c31 -2 38 -7 38 -24z"/>
<path d="M1544 5423 c-6 -7 -14 -10 -18 -8 -3 3 -4 2 -1 -2 3 -3 1 -11 -5 -18
-10 -12 -15 -70 -9 -95 5 -19 50 -60 67 -60 6 0 12 -6 12 -12 0 -9 4 -8 10 2
7 11 10 11 10 2 0 -8 8 -5 22 8 12 11 26 20 32 20 5 0 6 3 3 7 -8 8 34 39 47
35 5 -2 4 4 -3 12 -7 8 -10 20 -6 26 4 6 3 10 -2 9 -21 -4 -32 3 -38 21 -4 12
-11 17 -18 13 -8 -4 -7 -1 1 9 11 14 10 17 -7 23 -12 3 -21 10 -21 15 0 12
-62 7 -76 -7z m76 -18 c6 -3 10 -13 10 -22 0 -14 -3 -14 -24 1 -28 18 -35 12
-40 -34 -4 -33 14 -60 40 -60 11 0 12 4 4 19 -15 28 -13 31 20 31 29 0 40 -13
20 -25 -5 -3 -10 -15 -10 -26 0 -11 -7 -19 -16 -19 -9 0 -12 -5 -8 -11 4 -7 2
-9 -7 -5 -8 3 -21 9 -30 12 -37 13 -51 93 -24 131 14 21 40 24 65 8z m65 -75
c-3 -5 -1 -10 5 -10 6 0 8 -4 5 -10 -10 -16 -23 -11 -20 8 5 23 4 22 11 22 3
0 2 -4 -1 -10z"/>
<path d="M1398 5388 c12 -6 22 -19 22 -30 0 -10 7 -18 15 -18 19 0 20 -16 2
-27 -20 -12 -30 -43 -12 -36 8 3 13 9 10 13 -3 4 1 10 9 13 7 3 15 17 18 30 4
18 1 24 -9 20 -7 -3 -13 2 -13 11 0 16 -30 36 -52 35 -7 0 -3 -5 10 -11z"/>
<path d="M1365 5353 c-17 -25 -17 -27 0 -39 10 -7 14 -18 9 -25 -4 -7 -3 -10
4 -5 5 3 13 0 15 -6 3 -7 6 -1 6 15 1 21 -4 27 -19 27 -11 0 -20 5 -20 10 0 6
9 10 20 10 13 0 20 7 20 20 0 28 -14 25 -35 -7z"/>
<path d="M1895 5330 c7 -25 31 -50 47 -50 16 0 7 17 -23 46 l-31 29 7 -25z"/>
<path d="M1843 5245 c0 -8 2 -13 5 -11 2 3 14 1 26 -4 17 -6 23 -5 23 5 0 8
-4 12 -8 9 -4 -2 -10 2 -12 8 -4 10 -6 9 -6 -1 -1 -10 -4 -11 -14 -2 -10 8
-14 7 -14 -4z"/>
<path d="M1940 5251 c-8 -6 -19 -7 -25 -3 -5 3 -4 -2 4 -11 15 -19 26 -23 15
-5 -5 8 -2 9 9 5 11 -4 17 -1 17 8 0 17 0 18 -20 6z"/>
<path d="M380 5231 c-11 -21 -14 -349 -3 -338 3 4 5 74 4 156 -2 126 0 154 15
175 9 15 12 26 6 26 -6 0 -16 -9 -22 -19z"/>
<path d="M822 5221 c-8 -5 1 -7 22 -7 35 1 40 8 8 12 -9 2 -23 0 -30 -5z"/>
<path d="M2512 5002 c-8 -22 -1 -72 10 -72 4 0 7 100 3 100 -2 0 -7 -12 -13
-28z"/>
<path d="M373 4840 c0 -25 2 -35 4 -22 2 12 2 32 0 45 -2 12 -4 2 -4 -23z"/>
<path d="M375 4636 c2 -54 7 -102 12 -107 5 -5 6 27 1 79 -12 130 -16 138 -13
28z"/>
<path d="M1449 4713 c-1 -4 -1 -11 0 -15 0 -5 -6 -8 -15 -8 -9 0 -12 -5 -8
-12 5 -8 2 -9 -9 -5 -10 3 -17 2 -17 -3 0 -6 -18 -10 -40 -10 -25 0 -40 -5
-40 -12 0 -9 -4 -8 -11 2 -8 11 -12 12 -16 2 -2 -6 -9 -10 -14 -6 -5 3 -9 1
-9 -5 0 -6 -7 -8 -15 -5 -8 4 -15 1 -15 -5 0 -6 -7 -11 -15 -11 -8 0 -15 -6
-16 -12 0 -7 -4 -4 -9 7 -5 11 -9 14 -9 6 -1 -7 -7 -11 -15 -8 -7 3 -36 -6
-62 -20 -62 -31 -102 -44 -109 -33 -3 4 -28 11 -55 15 -27 4 -53 11 -56 16 -3
5 -9 7 -14 4 -5 -3 -11 4 -15 15 -4 11 -11 18 -16 15 -5 -4 -9 -1 -9 6 0 7 -3
10 -6 6 -12 -12 9 -49 39 -68 18 -10 50 -19 71 -19 23 0 47 -7 58 -17 18 -16
21 -16 47 0 16 9 34 17 41 17 6 0 24 9 38 21 21 16 34 19 65 14 31 -6 43 -3
60 13 12 11 40 23 62 26 66 11 133 36 139 52 8 20 43 17 49 -5 3 -11 17 -21
39 -25 20 -3 43 -15 53 -26 10 -11 33 -24 52 -31 26 -8 33 -15 28 -28 -12 -29
-10 -35 10 -39 11 -2 31 -8 44 -13 19 -8 21 -12 11 -24 -7 -8 -20 -15 -29 -15
-23 0 -67 -47 -63 -69 1 -9 -9 -28 -23 -41 -14 -13 -25 -29 -25 -36 0 -7 -7
-19 -15 -27 -11 -11 -12 -22 -5 -48 6 -19 7 -49 4 -67 -5 -26 -2 -38 15 -56
21 -22 21 -25 6 -63 -14 -36 -15 -45 -2 -75 8 -18 17 -54 21 -80 6 -43 5 -49
-19 -69 -20 -18 -24 -29 -19 -54 3 -17 -1 -50 -9 -73 -10 -29 -12 -52 -6 -70
5 -15 18 -55 29 -90 30 -92 27 -140 -10 -175 -18 -17 -32 -43 -35 -65 -7 -39
-10 -48 -23 -72 -45 -78 -60 -142 -40 -167 7 -9 7 -22 0 -43 -6 -16 -7 -32 -3
-34 10 -7 4 -178 -7 -185 -5 -3 -8 -37 -6 -76 2 -38 -2 -85 -8 -104 -8 -26 -7
-35 3 -42 7 -4 10 -11 7 -15 -4 -3 6 -26 22 -49 27 -39 28 -44 14 -70 -8 -15
-14 -45 -14 -66 0 -21 -5 -41 -10 -44 -6 -4 -8 -21 -4 -41 4 -22 2 -34 -5 -34
-7 0 -11 -24 -11 -64 0 -36 -5 -68 -10 -71 -6 -3 -10 -14 -10 -23 0 -10 -9
-23 -20 -30 -11 -7 -20 -23 -20 -37 0 -16 -6 -25 -15 -25 -19 0 -19 32 1 111
22 85 6 189 -35 233 -25 26 -26 48 -7 79 12 19 12 32 1 92 -7 38 -11 73 -8 78
12 20 11 128 -2 141 -10 9 -13 41 -13 108 1 84 -1 99 -20 123 -27 34 -28 55
-2 105 11 22 20 46 20 55 0 9 6 23 14 30 7 8 16 42 20 76 4 34 16 80 27 101
20 38 20 41 3 91 -10 29 -17 60 -16 70 0 10 -6 21 -13 23 -16 7 -14 106 5 189
10 45 9 50 -15 75 -23 24 -25 31 -19 87 4 37 2 81 -5 108 -10 40 -9 55 4 96
18 52 10 79 -21 79 -15 0 -34 30 -34 54 0 9 6 16 13 16 18 0 16 102 -3 117
-13 11 -13 12 3 13 25 0 22 6 -28 56 -34 35 -49 44 -65 39 -11 -3 -35 -1 -53
6 -20 7 -49 9 -71 5 -37 -7 -38 -7 -31 -47 5 -27 3 -39 -5 -39 -8 0 -10 -12
-5 -40 7 -39 6 -41 -27 -55 -51 -21 -59 -36 -60 -111 -2 -65 0 -69 21 -72 20
-3 22 -8 17 -35 -4 -17 -17 -47 -30 -67 -29 -41 -36 -91 -17 -114 9 -11 11
-29 7 -59 -5 -30 -2 -48 8 -62 9 -11 16 -30 16 -42 0 -27 35 -110 55 -129 20
-21 19 -46 -5 -77 -11 -14 -20 -29 -20 -34 0 -4 -7 -21 -15 -36 -13 -25 -13
-31 0 -43 13 -14 13 -30 0 -97 -2 -10 8 -30 21 -46 23 -28 24 -30 8 -72 -16
-46 -63 -202 -69 -230 -2 -9 4 -45 12 -80 8 -35 14 -75 14 -89 -1 -14 -3 -44
-4 -67 -1 -23 -5 -44 -8 -47 -5 -5 -2 -275 4 -306 1 -8 9 -30 16 -49 12 -27
12 -37 2 -53 -9 -14 -9 -23 -1 -33 6 -7 7 -16 2 -19 -15 -9 -35 40 -28 69 5
18 1 35 -13 54 -14 19 -26 64 -36 132 -22 152 -35 208 -58 262 -18 43 -18 50
-5 63 13 14 13 19 -3 52 -12 22 -16 44 -12 57 11 34 5 54 -24 79 l-27 24 19
38 c11 22 28 51 38 67 16 24 18 39 12 120 -6 75 -11 95 -27 108 -17 13 -18 20
-9 37 30 57 -9 290 -69 405 -33 63 -33 57 8 212 31 120 20 239 -25 275 -24 19
-30 44 -13 55 11 7 -6 52 -31 79 -25 27 -127 68 -181 73 -27 3 -48 8 -48 12 0
12 41 29 83 35 20 2 44 12 53 21 9 9 24 13 33 10 47 -18 72 -16 124 11 31 15
60 38 66 52 l11 24 -35 -22 c-19 -12 -35 -19 -35 -15 0 3 -7 -1 -16 -9 -10
-11 -34 -16 -73 -16 -32 0 -82 -8 -112 -19 -30 -10 -62 -17 -71 -16 -11 2 -15
-2 -11 -13 4 -10 2 -13 -6 -8 -6 4 -11 4 -10 -1 3 -19 -2 -27 -10 -15 -6 11
-10 10 -15 -4 -4 -10 -4 -16 -1 -12 3 3 17 -5 31 -19 13 -13 28 -22 33 -18 5
3 12 1 16 -4 3 -6 13 -7 22 -4 11 4 14 3 9 -5 -4 -8 -2 -10 7 -6 8 3 22 -3 32
-13 10 -10 23 -18 29 -19 6 0 19 -2 29 -2 9 -1 17 -9 17 -18 0 -8 5 -12 10 -9
6 3 11 -2 11 -12 1 -10 3 -33 5 -51 1 -19 10 -42 19 -52 17 -19 47 -105 39
-113 -3 -3 -7 -29 -8 -58 -2 -30 -10 -87 -20 -127 -9 -40 -14 -77 -11 -83 4
-5 1 -9 -4 -9 -17 0 -13 -37 8 -78 35 -69 51 -113 45 -124 -4 -6 -3 -8 3 -5
17 11 46 -177 39 -249 -4 -43 -3 -72 5 -87 7 -12 14 -40 15 -62 2 -22 5 -55 7
-74 4 -31 -5 -57 -41 -116 -4 -5 -5 -18 -3 -29 1 -10 -2 -15 -7 -12 -6 3 -13
-1 -16 -10 -3 -8 -2 -12 3 -9 5 3 12 1 16 -5 3 -5 2 -10 -4 -10 -6 0 -8 -7 -5
-15 4 -8 11 -12 17 -8 6 4 8 0 4 -11 -4 -10 -3 -15 3 -11 11 7 25 -39 16 -53
-3 -5 0 -33 8 -61 8 -31 9 -54 4 -57 -5 -3 -6 -13 -2 -23 3 -9 7 -23 8 -31 1
-8 7 -24 14 -36 6 -12 18 -59 26 -105 8 -46 20 -111 26 -144 6 -33 12 -68 13
-77 2 -10 11 -26 21 -37 12 -14 16 -28 12 -45 -4 -18 1 -33 21 -56 27 -32 27
-32 44 -12 13 16 19 18 30 9 7 -7 6 -3 -4 9 -19 23 -23 39 -6 28 8 -5 9 -2 2
11 -6 10 -8 26 -6 36 3 11 0 19 -6 19 -9 0 -9 6 0 23 11 19 10 20 -2 10 -12
-10 -15 -8 -15 7 0 10 4 16 8 14 4 -3 6 1 3 8 -9 24 -12 288 -4 293 4 3 6 15
4 27 -3 12 2 35 10 50 7 16 9 26 4 23 -8 -6 -13 18 -13 67 0 9 -3 15 -7 13
-12 -8 -19 78 -10 115 18 68 24 85 32 90 5 3 9 20 11 38 1 18 5 32 8 32 7 0 8
5 11 70 1 25 -3 46 -10 48 -6 2 -9 8 -5 13 3 5 0 9 -5 9 -11 0 -12 170 -1 180
3 3 15 26 28 52 l23 46 -28 59 c-15 32 -31 60 -35 61 -5 2 -8 15 -8 28 0 13
-4 24 -10 24 -5 0 -7 7 -4 15 4 8 2 21 -4 28 -5 6 -12 39 -15 72 -3 33 -8 71
-11 85 -4 17 1 31 16 47 12 13 18 23 14 23 -3 0 0 13 8 28 15 30 12 57 -11
102 -21 41 -16 88 12 116 14 14 29 23 34 19 10 -5 31 49 36 91 1 13 5 27 8 31
4 3 1 15 -5 26 -9 17 -8 19 7 13 13 -5 16 -2 11 10 -5 14 -4 15 9 4 9 -7 15
-8 15 -2 0 6 12 5 30 -4 16 -8 42 -17 57 -18 15 -2 32 -4 36 -5 5 0 5 -5 2
-11 -3 -5 0 -10 9 -10 26 0 39 -146 14 -161 -16 -10 6 -66 37 -95 15 -13 22
-24 17 -24 -15 0 -17 -72 -7 -176 4 -47 3 -79 -4 -93 -7 -12 -8 -21 -4 -21 12
0 33 -51 26 -63 -4 -6 -1 -7 6 -2 9 5 11 -5 8 -41 -3 -27 -6 -51 -7 -54 -8
-19 -4 -118 5 -129 5 -8 9 -17 9 -20 -1 -3 3 -17 8 -31 5 -14 11 -36 12 -50 1
-14 5 -31 9 -38 5 -6 4 -12 -2 -12 -6 0 -7 -7 -4 -17 4 -10 2 -14 -4 -10 -11
7 -24 -39 -29 -106 -1 -21 -10 -49 -19 -63 -8 -13 -12 -24 -9 -24 4 0 -1 -10
-12 -22 -10 -12 -13 -18 -7 -14 9 5 11 2 7 -8 -3 -9 -11 -13 -18 -9 -6 4 -4
-2 4 -12 12 -15 12 -17 1 -10 -11 6 -13 4 -8 -8 3 -10 3 -17 -2 -17 -12 0 -21
-39 -10 -46 5 -3 9 -12 9 -21 0 -9 8 -22 18 -30 9 -8 11 -11 3 -7 -11 5 -13 3
-8 -10 4 -10 7 -21 7 -24 0 -4 5 0 10 8 8 12 10 9 10 -12 0 -14 -4 -28 -9 -30
-4 -1 -11 -14 -15 -28 -5 -17 -4 -21 2 -11 6 8 12 9 16 3 3 -6 2 -14 -4 -17
-7 -4 -7 -11 -2 -18 5 -7 9 -28 8 -48 -1 -26 2 -35 11 -32 8 3 13 -3 13 -16 0
-12 -5 -21 -11 -21 -5 0 -7 5 -3 12 4 7 3 8 -4 4 -9 -5 -7 -14 4 -32 13 -19
14 -27 4 -39 -9 -11 -10 -15 -1 -15 8 0 10 -8 5 -22 -4 -13 -6 -34 -5 -48 2
-14 3 -37 3 -52 0 -16 4 -28 10 -28 5 0 5 -7 -1 -17 -18 -35 -21 -90 -6 -103
8 -7 12 -17 8 -23 -3 -5 -1 -7 4 -4 11 7 28 -37 24 -60 -1 -7 3 -13 9 -13 7 0
7 -7 -1 -22 -11 -20 -10 -21 2 -11 12 10 15 8 15 -7 0 -10 -4 -17 -8 -14 -7 5
-8 -1 -10 -73 0 -24 -4 -43 -8 -43 -10 0 -6 -53 5 -71 17 -26 40 -29 55 -6 8
12 13 25 12 29 -1 4 7 10 18 13 11 4 18 11 15 16 -4 5 0 9 7 9 9 0 9 3 -2 10
-13 9 -13 10 0 11 8 1 19 1 23 0 4 -1 3 8 -3 18 -5 11 -6 22 -2 25 4 2 7 25 6
50 -1 25 2 43 7 40 5 -3 9 4 9 16 0 12 4 18 10 15 6 -3 7 1 4 9 -3 9 -11 13
-18 9 -8 -5 -8 -3 0 8 6 8 9 26 8 42 -2 15 1 25 6 22 5 -3 12 0 16 6 4 8 3 9
-4 5 -16 -10 -15 7 1 23 10 11 9 13 -5 8 -15 -5 -15 -2 3 32 17 33 18 42 7 67
-7 16 -17 32 -23 36 -6 5 -6 8 0 8 6 0 5 4 -2 8 -6 4 -15 20 -19 36 -4 19 -3
27 3 23 6 -4 8 3 6 17 -3 13 0 27 6 30 6 4 11 12 11 17 0 6 -5 7 -11 3 -9 -5
-10 13 -5 67 4 41 8 106 10 145 1 39 6 76 10 82 3 6 3 13 -2 16 -12 7 -8 166
4 174 12 8 40 74 36 85 -1 4 3 7 9 7 6 0 8 8 4 19 -3 10 1 25 8 33 8 8 17 24
21 36 4 12 15 29 24 38 21 22 21 110 -2 154 -18 38 -20 43 -7 35 5 -3 3 8 -5
24 -25 50 -14 199 17 227 21 19 25 76 9 120 -16 41 -20 90 -10 124 7 23 5 38
-5 53 -26 40 -20 197 7 197 5 0 7 7 4 16 -3 9 -2 12 5 9 5 -4 16 -1 24 5 8 6
20 8 26 4 7 -4 27 -7 46 -6 18 1 33 -2 33 -7 0 -5 7 -12 16 -15 10 -4 13 -2 8
7 -6 9 -5 9 7 0 8 -6 30 -10 49 -8 19 1 50 -4 68 -13 29 -13 31 -16 18 -31
-12 -13 -12 -19 -2 -34 13 -16 13 -55 1 -105 -4 -17 -2 -22 6 -16 8 5 9 3 3
-7 -13 -22 -15 -48 -4 -69 5 -10 6 -20 2 -22 -13 -5 -52 -65 -52 -80 0 -8 8
-23 18 -34 16 -16 17 -26 10 -59 -6 -22 -7 -65 -3 -95 3 -30 6 -62 7 -71 1 -9
8 -14 15 -12 9 3 11 0 7 -10 -3 -8 1 -26 10 -39 11 -17 13 -33 7 -63 -20 -92
-21 -106 -9 -99 6 4 8 3 5 -3 -3 -5 1 -32 9 -59 17 -54 20 -249 5 -328 -5 -29
-5 -43 1 -40 6 4 5 -3 -1 -15 -7 -11 -16 -21 -21 -21 -6 0 -8 -14 -5 -31 4
-23 2 -29 -7 -23 -8 5 -7 1 2 -11 11 -14 12 -17 1 -11 -9 6 -12 5 -9 -5 3 -8
10 -13 15 -12 15 3 5 -88 -12 -106 -16 -19 -22 -121 -6 -121 12 0 12 -78 0
-85 -5 -4 -9 -12 -9 -18 0 -7 4 -6 11 3 9 12 10 11 4 -5 -11 -31 -11 -69 -1
-83 5 -7 10 -29 12 -48 1 -20 7 -41 13 -47 13 -13 15 71 2 91 -4 7 -2 45 5 85
10 59 10 78 -1 102 -24 55 -25 78 -6 100 23 25 33 106 18 146 -9 24 -8 35 6
62 11 21 19 67 23 137 10 185 7 260 -12 302 -16 35 -17 49 -6 119 11 75 10 81
-12 126 -35 70 -48 114 -37 127 6 6 9 25 9 42 -1 17 2 36 6 42 4 7 -3 25 -14
40 l-22 29 36 51 c31 42 34 51 20 56 -13 5 -15 13 -9 39 4 17 8 66 9 107 1 41
5 80 9 87 4 6 1 15 -6 20 -8 4 -16 14 -18 22 -6 18 -81 43 -93 31 -15 -15 -62
-12 -77 6 -8 10 -27 15 -58 14 -25 -1 -50 -1 -54 -1 -23 3 68 72 104 80 22 5
50 17 61 28 11 10 22 17 24 16 17 -12 38 3 52 37 10 22 26 41 37 44 11 3 34
20 50 37 21 23 25 30 12 26 -10 -4 -25 -7 -33 -7 -9 0 -13 -4 -10 -9 7 -11
-22 -23 -35 -15 -5 3 -9 1 -9 -5 0 -16 -43 -58 -68 -66 -13 -4 -21 -9 -18 -13
3 -3 -8 -14 -25 -24 -29 -17 -33 -18 -55 -3 -13 8 -24 20 -24 25 0 5 -7 6 -17
3 -12 -5 -14 -3 -8 7 6 9 4 12 -6 8 -9 -4 -15 1 -16 11 -3 31 -23 71 -35 71
-9 0 -9 -3 2 -10 8 -5 12 -11 9 -15 -3 -3 -17 4 -31 15 -14 10 -28 16 -32 13
-3 -3 -6 -2 -6 4 0 6 -13 16 -30 22 -16 5 -30 15 -30 20 0 6 -9 11 -21 11 -11
0 -18 4 -14 9 3 5 0 13 -6 17 -8 4 -9 3 -5 -4 9 -15 1 -15 -25 -2 -10 6 -20 7
-20 3z"/>
<path d="M2036 4631 c-9 -14 18 -31 42 -26 21 4 52 -17 52 -35 0 -5 9 -12 21
-15 20 -7 21 -16 4 -57 -5 -14 -2 -18 13 -18 24 0 33 -33 18 -67 -7 -17 -5
-27 7 -41 15 -16 15 -20 -3 -47 -11 -17 -20 -45 -20 -64 0 -19 -7 -39 -16 -46
-9 -6 -18 -26 -20 -44 -2 -17 -8 -41 -14 -52 -6 -10 -8 -24 -5 -29 3 -5 -3
-27 -14 -48 -15 -29 -20 -58 -19 -108 0 -38 -3 -79 -7 -91 -5 -17 -3 -23 8
-23 26 0 29 -17 13 -81 -9 -33 -16 -74 -16 -90 0 -32 25 -89 44 -101 23 -15
14 -129 -15 -211 -29 -80 -33 -137 -11 -159 18 -18 14 -57 -13 -118 -20 -47
-22 -58 -11 -75 8 -12 12 -39 9 -65 -2 -25 -5 -91 -6 -147 -2 -56 -8 -107 -14
-115 -6 -7 -16 -31 -23 -53 -7 -22 -20 -53 -29 -70 -9 -17 -16 -55 -16 -88 0
-40 -5 -61 -15 -67 -8 -5 -10 -10 -4 -10 26 0 48 41 49 93 0 35 8 64 23 88 12
20 22 41 22 46 0 6 8 25 17 44 13 27 16 56 14 142 -1 60 1 107 6 104 9 -6 9
65 0 80 -8 12 -2 60 12 96 15 40 11 115 -6 121 -8 3 -11 11 -8 16 4 6 8 25 11
43 3 25 1 29 -7 17 -9 -12 -10 -12 -5 3 3 10 6 21 6 23 0 3 5 2 12 -2 7 -4 8
-3 4 4 -4 6 3 30 14 52 17 33 21 57 19 118 -2 76 -9 104 -36 130 -7 7 -14 23
-14 35 -1 12 -3 31 -3 42 -1 11 4 31 10 45 6 14 9 31 6 39 -3 8 0 11 7 7 16
-10 13 13 -9 61 -13 30 -16 51 -11 70 4 15 4 41 0 57 -6 20 -3 40 8 65 21 47
24 59 28 99 2 18 13 54 25 80 13 26 23 59 24 74 1 16 4 28 7 28 7 0 19 33 23
63 2 9 -3 22 -11 28 -16 14 -17 29 -2 29 5 0 7 -5 3 -12 -5 -7 -3 -8 5 -3 9 5
10 10 2 18 -14 14 -14 30 -1 22 6 -4 3 10 -7 29 -9 20 -20 36 -23 36 -4 0 -5
10 -3 23 4 24 -56 96 -83 98 -27 3 -32 4 -40 12 -10 10 -22 9 -28 -2z"/>
<path d="M379 4496 c-8 -9 2 -536 11 -536 8 0 4 529 -4 537 -1 2 -5 1 -7 -1z"/>
<path d="M2104 4298 c-4 -7 -3 -8 4 -4 8 4 12 0 12 -11 0 -15 2 -15 9 -3 10
15 6 30 -9 30 -5 0 -12 -5 -16 -12z"/>
<path d="M898 4195 c2 -14 8 -23 12 -20 10 6 1 45 -10 45 -4 0 -5 -11 -2 -25z"/>
<path d="M1523 4155 c0 -14 3 -25 8 -25 4 0 6 10 4 21 -6 32 -12 34 -12 4z"/>
<path d="M388 3768 c4 -279 8 -298 10 -45 1 125 -1 227 -5 227 -5 0 -7 -82 -5
-182z"/>
<path d="M930 3417 c0 -15 4 -27 8 -27 10 0 9 36 -1 46 -4 4 -7 -5 -7 -19z"/>
<path d="M398 3180 c2 -135 7 -355 12 -490 5 -180 6 -125 2 205 -2 248 -8 468
-11 490 -4 22 -5 -70 -3 -205z"/>
<path d="M2370 3235 c0 -46 15 -46 16 0 1 19 -3 35 -7 35 -5 0 -9 -16 -9 -35z"/>
<path d="M2372 3155 c-1 -22 -4 -278 -6 -570 l-4 -530 9 405 c8 347 8 816 1
695z"/>
<path d="M2040 2938 c0 -18 4 -38 8 -45 4 -7 7 8 7 33 0 24 -3 44 -7 44 -5 0
-8 -15 -8 -32z"/>
<path d="M414 2345 c0 -55 1 -76 3 -47 2 29 2 74 0 100 -2 26 -3 2 -3 -53z"/>
<path d="M410 2155 c0 -53 4 -85 11 -85 7 0 9 30 7 85 -2 47 -6 85 -10 85 -5
0 -8 -38 -8 -85z"/>
<path d="M410 1960 c3 -121 2 -145 -4 -139 -3 2 -7 17 -10 32 -8 48 -49 74
-81 51 -16 -12 -18 -28 -18 -154 0 -130 2 -142 21 -160 25 -24 50 -26 58 -5 5
11 11 12 25 4 18 -9 19 -23 19 -196 0 -102 3 -183 8 -179 4 4 7 85 7 178 0
124 3 172 12 175 8 3 10 -6 6 -31 -4 -24 -2 -36 6 -36 6 0 10 -3 10 -7 -4 -26
4 -45 25 -58 21 -14 28 -14 48 -4 13 7 28 12 33 10 6 -1 7 0 3 4 -4 4 -1 14 7
22 8 8 15 30 15 49 0 22 4 33 11 29 6 -4 8 -13 5 -21 -3 -8 -1 -13 4 -11 16 4
70 -67 70 -91 0 -30 43 -72 74 -72 27 0 66 42 66 72 0 11 14 25 37 36 21 9 47
27 58 40 l20 23 2 -33 c1 -29 33 -108 33 -83 0 5 5 4 12 -3 36 -36 88 12 88
81 0 52 4 55 41 29 29 -20 72 -62 63 -62 -4 0 0 -8 7 -17 12 -14 12 -16 0 -8
-7 4 -3 -6 10 -24 23 -31 37 -42 23 -18 -4 6 2 4 13 -5 19 -17 20 -17 43 7 12
13 27 22 31 19 5 -3 9 0 9 6 0 6 11 0 24 -12 12 -13 21 -29 18 -37 -4 -10 -1
-12 7 -6 8 5 21 -1 35 -17 11 -13 19 -19 16 -13 -3 6 3 2 13 -8 9 -11 17 -14
17 -8 0 15 27 14 33 -1 4 -10 6 -10 6 0 1 6 9 12 19 12 22 0 142 115 142 136
0 7 4 14 8 14 4 0 19 30 32 66 14 37 32 69 40 72 8 3 18 10 22 16 13 19 19
-39 9 -84 -6 -26 -6 -50 -1 -61 5 -9 7 -18 5 -21 -3 -3 16 -20 42 -38 25 -19
43 -28 39 -22 -5 8 0 12 12 12 38 0 53 33 55 116 1 44 7 82 12 86 6 5 5 8 -2
8 -7 0 -10 6 -7 14 5 14 34 15 68 1 11 -5 21 -3 26 5 5 8 7 -14 4 -49 -2 -35
-6 -66 -9 -70 -4 -8 51 -70 64 -72 30 -5 69 -3 65 3 -3 4 1 8 8 9 44 2 73 10
104 28 19 12 51 21 70 21 l35 0 -4 -255 c-1 -140 1 -255 5 -255 4 0 9 123 9
273 1 149 5 286 9 302 6 23 8 25 9 8 0 -12 13 -31 27 -42 24 -19 27 -19 44 -3
39 36 42 67 13 128 -24 52 -25 60 -14 102 21 84 20 88 -8 114 -23 22 -29 24
-45 13 -12 -9 -26 -11 -40 -6 -17 7 -29 1 -61 -30 -33 -32 -46 -38 -72 -35
-18 3 -35 1 -38 -3 -2 -5 -27 -7 -55 -5 -28 1 -48 -1 -46 -5 10 -15 -54 -43
-83 -36 -15 3 -59 1 -97 -6 -38 -6 -100 -13 -137 -14 -48 -2 -73 -8 -87 -20
-18 -17 -21 -17 -62 0 -53 21 -97 25 -112 10 -6 -7 -28 -12 -49 -11 -20 1 -37
-1 -37 -4 0 -3 -9 -6 -21 -7 -11 -1 -29 -11 -39 -22 -25 -29 -39 -26 -38 9 1
16 5 27 11 23 14 -8 -12 36 -33 57 -10 10 -21 16 -24 13 -3 -4 -6 0 -6 7 0 7
-3 10 -7 7 -3 -4 -15 1 -25 10 -18 16 -18 16 -12 -3 4 -10 4 -16 -1 -12 -4 4
-16 -2 -27 -14 -14 -17 -17 -34 -15 -84 3 -49 1 -61 -10 -57 -7 3 -13 9 -13
13 0 5 -9 12 -21 15 -11 4 -28 20 -38 36 -10 16 -21 26 -24 23 -4 -4 -13 -2
-21 5 -8 7 -26 9 -42 6 -16 -4 -35 -7 -41 -7 -7 -1 -13 -5 -13 -10 0 -15 -39
-8 -49 10 -6 9 -11 14 -11 10 0 -4 -14 -2 -30 4 -20 6 -35 22 -44 43 -8 19
-26 41 -40 50 -24 16 -27 16 -58 -3 -18 -10 -32 -25 -30 -32 2 -7 -3 -10 -12
-7 -9 4 -18 1 -22 -5 -4 -7 -9 -6 -14 2 -5 8 -11 7 -23 -5 -13 -12 -21 -14
-37 -5 -11 6 -20 15 -20 20 0 6 -7 10 -15 10 -8 0 -15 4 -15 9 0 19 -33 20
-71 1 l-39 -20 -2 102 c-1 125 -1 125 -11 135 -5 4 -8 -39 -7 -97z m-21 -170
l34 -100 23 47 c12 27 31 59 42 72 l19 24 31 -34 c33 -36 38 -49 23 -65 -5 -5
-6 -60 -2 -129 7 -114 6 -121 -13 -137 -12 -10 -25 -16 -31 -14 -6 2 -10 64
-10 159 0 87 -2 157 -5 157 -3 0 -18 -28 -33 -61 -24 -48 -27 -62 -17 -75 15
-17 11 -23 -20 -26 -20 -3 -25 4 -44 70 -11 39 -23 72 -26 72 -3 0 -3 -38 -1
-85 2 -54 -1 -85 -7 -85 -17 0 -24 52 -24 178 0 142 -1 132 15 132 7 0 27 -43
46 -100z m2033 29 c-2 -30 -7 -55 -12 -57 -6 -2 -10 -12 -10 -23 0 -23 41
-109 52 -109 13 0 9 -24 -8 -60 -20 -39 -24 -34 -60 73 -21 64 -28 76 -40 66
-10 -8 -14 -35 -14 -90 0 -81 -11 -104 -36 -73 -11 15 -12 40 -7 117 4 70 3
97 -6 97 -20 0 -11 24 20 59 21 23 33 30 38 22 6 -9 11 -8 21 4 7 8 19 15 26
15 8 0 14 5 14 11 0 6 6 9 13 6 8 -3 11 -22 9 -58z m-1632 -39 l0 -50 43 0
c29 0 51 -7 70 -23 27 -22 27 -23 17 -87 -16 -105 -17 -106 -62 -124 -74 -31
-73 -30 -70 -75 4 -38 2 -41 -22 -41 -30 0 -63 49 -38 58 20 6 14 17 -32 63
-47 48 -86 136 -86 194 0 19 -4 37 -10 40 -15 9 -12 25 5 25 8 0 24 6 35 13
16 9 22 9 28 0 5 -7 23 -16 41 -19 32 -7 34 -6 29 17 -3 13 -9 32 -13 42 -6
14 -2 17 29 17 l36 0 0 -50z m1450 0 c14 -26 9 -72 -8 -78 -7 -2 -16 5 -19 17
-10 38 -87 19 -95 -23 -6 -31 15 -35 50 -10 29 20 44 10 36 -24 -9 -35 -23
-51 -32 -35 -4 7 -17 10 -30 6 -19 -5 -22 -12 -22 -53 l0 -48 38 10 c55 15 69
25 76 53 4 14 11 25 16 25 12 0 13 -70 2 -86 -4 -5 -34 -18 -67 -28 -33 -11
-66 -23 -73 -29 -10 -8 -16 -7 -20 0 -4 6 -16 12 -27 15 -15 3 -19 10 -17 28
11 91 13 180 3 180 -6 0 -11 9 -11 20 0 11 4 20 9 20 5 0 24 12 41 27 23 19
34 23 39 14 6 -9 17 -8 47 3 53 19 52 19 64 -4z m-969 -7 c30 -18 37 -37 18
-49 -7 -4 -10 -54 -8 -150 3 -123 1 -146 -13 -160 -27 -27 -51 -10 -44 29 6
30 2 36 -41 69 -27 20 -71 59 -100 86 l-51 50 4 -54 c2 -30 6 -79 8 -110 5
-65 -14 -84 -44 -44 -15 20 -17 38 -12 126 4 96 4 103 -17 115 -27 17 -27 29
0 29 11 0 29 5 40 11 17 9 32 0 106 -62 47 -40 92 -83 100 -96 21 -31 27 -22
15 19 -6 18 -12 72 -15 121 -5 97 -1 102 54 70z m733 -39 c18 -47 -13 -101
-36 -61 -6 11 -22 17 -48 17 l-40 0 0 -124 c0 -79 -4 -127 -11 -132 -6 -3 -26
2 -44 12 -38 20 -36 6 -20 188 l4 48 -35 -7 c-20 -3 -46 -18 -59 -33 -19 -22
-25 -24 -38 -13 -13 10 -14 18 -5 39 18 41 31 48 100 51 34 1 92 8 128 15 89
18 97 18 104 0z m-397 -30 c28 -11 43 -23 43 -34 0 -14 -13 -19 -64 -24 -36
-3 -84 -4 -108 0 l-43 6 23 -19 c21 -17 32 -18 93 -11 63 8 73 6 100 -13 l30
-21 -41 -76 c-45 -84 -80 -126 -122 -148 -34 -18 -85 -18 -95 -1 -4 8 -23 24
-40 37 -39 28 -42 47 -9 56 17 4 36 -2 62 -20 34 -23 40 -24 55 -10 18 16 62
122 57 139 -4 11 -69 7 -82 -6 -22 -20 -47 -7 -81 43 l-35 53 22 16 c12 9 47
20 77 23 31 4 63 11 71 16 21 14 38 12 87 -6z m-282 -74 c-3 -5 1 -10 9 -10 9
0 15 -3 15 -7 -3 -20 2 -34 10 -28 6 3 8 -4 6 -16 -3 -16 0 -19 12 -15 13 5
14 4 4 -8 -10 -12 -9 -14 6 -12 10 2 24 -3 31 -11 16 -15 32 -17 32 -3 0 6 7
10 15 10 8 0 15 -7 15 -16 0 -8 4 -12 10 -9 6 3 7 -1 4 -9 -7 -18 -7 -18 -45
-20 -20 -1 -25 2 -21 14 5 13 3 13 -11 1 -14 -11 -17 -11 -18 0 0 9 -2 10 -5
3 -3 -7 -14 -10 -24 -7 -11 3 -20 1 -20 -5 0 -5 -7 -13 -16 -16 -8 -3 -12 -2
-9 3 3 5 0 13 -5 16 -7 5 -5 12 7 22 10 8 12 12 6 8 -9 -4 -13 2 -14 17 0 13
-2 39 -3 58 -2 35 1 50 10 50 3 0 2 -4 -1 -10z"/>
<path d="M2358 1797 c-26 -21 -47 -67 -31 -67 11 0 63 63 63 78 0 16 -1 16
-32 -11z"/>
<path d="M670 1700 c0 -25 47 -150 63 -165 6 -7 8 -2 3 15 -3 14 -6 58 -6 99
0 64 -2 72 -15 61 -12 -10 -18 -10 -30 0 -13 10 -15 9 -15 -10z"/>
<path d="M783 1628 c0 -40 -3 -84 -8 -97 l-7 -24 33 19 c26 16 35 29 41 60 10
57 0 94 -29 105 -13 5 -26 9 -28 9 -1 0 -3 -33 -2 -72z"/>
<path d="M2429 1397 c-28 -21 -29 -64 -1 -95 l25 -27 -17 28 c-14 23 -15 34
-6 63 16 48 34 32 27 -25 -4 -38 -3 -43 7 -29 14 20 10 73 -8 87 -7 6 -17 5
-27 -2z"/>
<path d="M574 1352 c-47 -30 -43 -156 6 -169 11 -3 17 -9 14 -14 -3 -5 3 -9
13 -9 10 0 34 -3 53 -6 31 -5 37 -3 49 20 13 23 12 28 -4 46 -16 18 -17 23 -5
46 18 32 6 52 -41 76 -38 19 -76 25 -49 8 8 -5 10 -10 5 -10 -6 0 -15 4 -21
10 -5 5 -14 6 -20 2z m70 -36 c61 -16 78 -42 22 -32 -21 4 -44 10 -52 13 -8 3
-14 -1 -14 -10 0 -8 13 -17 30 -20 17 -4 30 -11 30 -18 0 -7 -11 -8 -31 -4
-51 11 -30 -18 22 -31 28 -7 45 -17 47 -28 4 -18 -13 -16 -88 9 -34 12 -35 13
-38 73 -3 69 -5 68 72 48z"/>
<path d="M2139 1353 c-1 -4 -1 -12 0 -17 1 -5 -5 -6 -13 -3 -16 6 -29 -7 -33
-33 -1 -8 10 -30 25 -50 15 -19 26 -38 25 -42 -2 -4 6 -12 18 -18 16 -9 26 -8
45 5 24 15 35 43 12 28 -7 -4 -5 5 5 20 9 15 15 27 12 27 -4 0 1 10 9 22 18
25 20 38 7 38 -16 0 -61 -77 -59 -100 2 -16 -3 -25 -14 -28 -14 -3 -18 3 -18
27 0 19 -8 36 -23 48 -13 10 -26 23 -30 29 -11 18 46 8 59 -11 11 -14 14 -13
30 14 10 17 24 31 31 31 6 0 14 4 17 9 3 5 -6 9 -19 9 -14 0 -25 -5 -25 -10 0
-5 -4 -6 -10 -3 -5 3 -10 1 -10 -4 0 -6 -7 -11 -16 -11 -8 0 -13 4 -9 9 3 5 1
12 -5 16 -5 3 -11 3 -11 -2z"/>
<path d="M1900 1298 c-73 -11 -95 -34 -95 -97 0 -70 25 -95 85 -87 25 4 53 7
63 7 9 0 17 5 17 11 0 6 3 8 7 5 3 -4 15 0 25 10 13 12 18 30 18 68 0 82 -24
99 -120 83z m95 -29 c10 -15 -2 -23 -38 -24 -91 -4 -87 -2 -87 -44 0 -42 -3
-40 63 -26 34 7 36 25 2 25 -35 0 -31 16 6 24 54 11 58 9 54 -26 -5 -38 -16
-45 -82 -54 -75 -9 -83 -4 -83 55 0 56 6 63 70 72 71 10 88 10 95 -2z"/>
<path d="M837 1293 c-12 -11 -7 -23 9 -23 9 0 43 -23 75 -51 l59 -51 -7 48
c-5 42 -4 47 11 41 10 -4 20 -7 22 -7 2 0 4 -29 4 -65 0 -36 -4 -65 -9 -65 -6
0 -37 23 -70 50 l-61 51 0 -42 c0 -33 -3 -40 -16 -35 -9 3 -16 6 -17 6 -1 0
-1 24 1 53 3 39 0 57 -12 66 -9 8 -16 12 -17 10 -4 -21 -4 -49 0 -49 3 0 6
-11 6 -24 0 -13 -3 -22 -7 -19 -11 6 -10 -2 3 -31 7 -14 16 -23 20 -20 5 3 9
1 9 -5 0 -13 24 -8 46 9 16 13 17 13 9 0 -6 -12 -5 -13 6 -2 15 14 33 16 24 2
-5 -9 43 -40 63 -40 5 0 18 8 29 18 27 24 26 125 -3 147 -24 18 -35 18 -60 0
-19 -13 -24 -12 -55 10 -33 25 -50 30 -62 18z"/>
<path d="M1224 1269 c-3 -6 -14 -9 -23 -6 -29 7 -46 -24 -47 -87 0 -47 4 -63
20 -80 13 -13 24 -17 28 -11 5 6 8 5 8 -2 0 -7 5 -13 11 -13 5 0 7 6 3 13 -5
8 -2 8 9 -2 14 -11 17 -11 17 0 0 11 2 11 10 -1 7 -11 10 -11 10 -2 0 10 5 10
20 2 14 -8 20 -8 20 0 0 6 5 8 10 5 15 -9 40 14 40 36 0 10 -10 25 -22 33 -12
9 -18 16 -13 16 6 0 16 13 23 30 11 25 11 32 0 43 -7 8 -21 13 -31 11 -9 -1
-17 2 -17 6 0 5 -13 5 -30 0 -28 -8 -34 -6 -31 13 2 11 -7 9 -15 -4z m114 -48
c2 -7 -17 -11 -57 -11 -34 0 -61 -4 -61 -10 0 -5 16 -10 35 -10 26 0 35 -4 35
-16 0 -13 -8 -15 -35 -12 -24 3 -35 0 -35 -9 0 -9 17 -13 59 -13 56 0 84 -13
65 -29 -5 -3 -44 -5 -86 -3 l-78 4 0 63 0 63 77 -3 c45 -2 79 -8 81 -14z"/>
<path d="M1590 1271 c0 -4 -11 -7 -25 -6 -14 2 -25 -1 -25 -6 0 -5 -5 -9 -11
-9 -5 0 -7 6 -3 13 5 8 2 8 -9 -2 -30 -24 -19 -28 61 -24 86 5 102 8 102 22 0
13 -46 19 -65 8 -13 -7 -16 -6 -11 2 4 6 2 11 -3 11 -6 0 -11 -4 -11 -9z"/>
<path d="M1483 1207 c2 -21 0 -37 -5 -37 -5 0 -6 -4 -3 -10 3 -5 8 -19 10 -31
5 -22 32 -48 52 -49 7 0 17 8 22 18 6 9 11 13 11 7 0 -5 4 -4 9 3 7 11 10 11
22 0 18 -17 65 -22 74 -9 3 6 -2 11 -12 11 -10 0 -35 11 -55 25 -20 14 -42 25
-47 25 -6 0 -11 -11 -11 -25 0 -18 -5 -25 -20 -25 -18 0 -20 7 -20 54 0 36 -5
58 -15 66 -14 12 -15 9 -12 -23z"/>
<path d="M1672 1209 c-1 -32 -6 -43 -23 -45 -23 -3 -23 -6 1 -19 41 -23 47
-19 46 37 -1 55 -22 80 -24 27z"/>
<path d="M1583 1213 c-21 -3 -33 -10 -33 -19 0 -12 10 -14 43 -12 28 2 42 8
42 17 0 17 -9 19 -52 14z"/>
<path d="M434 1100 c0 -58 1 -81 3 -52 2 28 2 76 0 105 -2 28 -3 5 -3 -53z"/>
<path d="M680 316 c20 -8 51 -16 70 -20 24 -4 17 1 -20 14 -30 11 -62 19 -70
19 -8 0 1 -6 20 -13z"/>
<path d="M2045 310 c-13 -5 -14 -9 -5 -9 8 0 24 4 35 9 13 5 14 9 5 9 -8 0
-24 -4 -35 -9z"/>
<path d="M880 270 c8 -5 24 -9 35 -9 l20 0 -20 9 c-11 5 -27 9 -35 9 -13 1
-13 0 0 -9z"/>
<path d="M948 273 c6 -2 10 -8 8 -12 -5 -7 16 -12 62 -15 12 0 22 -5 22 -11 0
-5 5 -4 11 2 18 18 1 35 -22 23 -14 -8 -19 -7 -19 1 0 6 -9 9 -20 6 -11 -3
-23 -1 -26 4 -3 5 -11 9 -17 8 -9 0 -8 -2 1 -6z"/>
<path d="M1810 270 c8 -5 24 -10 34 -10 26 0 18 6 -19 14 -22 5 -26 4 -15 -4z"/>
<path d="M1746 263 c-3 -4 -17 -9 -29 -12 -34 -7 -567 -6 -609 1 -27 5 -38 3
-42 -8 -3 -8 0 -15 7 -15 7 -1 18 -2 24 -3 7 0 12 -5 10 -10 -3 -13 -45 -17
-52 -5 -10 15 -25 10 -25 -8 0 -14 2 -15 9 -4 6 10 10 10 16 1 4 -6 13 -9 20
-6 7 2 30 1 51 -4 78 -18 494 -17 494 1 0 5 -5 7 -11 3 -7 -4 -10 -1 -7 7 5
14 25 19 42 11 4 -3 2 -8 -5 -13 -9 -6 2 -8 31 -7 29 1 35 2 18 5 -16 2 -28
11 -28 18 0 8 8 12 20 10 11 -2 20 2 20 8 0 7 4 6 10 -3 6 -10 10 -11 10 -2 0
6 8 12 18 12 10 0 19 7 19 15 0 17 -1 18 -11 8z m-156 -52 c0 -4 -11 -8 -25
-9 -14 -1 -25 2 -25 6 0 4 11 8 25 8 14 1 25 -1 25 -5z"/>
<path d="M1780 260 c12 -8 12 -10 1 -10 -8 0 -12 -2 -9 -5 3 -3 13 -2 22 1 14
5 15 9 4 15 -7 5 -17 9 -23 9 -5 0 -3 -5 5 -10z"/>
<path d="M855 240 c-4 -6 1 -7 11 -3 13 5 15 3 9 -7 -5 -9 -4 -11 3 -6 7 4 12
11 12 17 0 12 -27 12 -35 -1z"/>
<path d="M1853 237 c-2 -4 -10 -4 -16 -1 -8 4 -7 2 1 -7 11 -12 14 -12 22 1 7
11 10 11 10 2 0 -8 5 -10 13 -5 6 4 19 6 29 5 9 -2 19 1 21 5 3 5 -13 9 -35 8
-22 0 -42 -3 -45 -8z"/>
<path d="M2174 5793 c-18 -14 -16 -15 19 -8 24 4 37 3 33 -3 -9 -16 18 -21 59
-12 39 9 52 16 43 26 -4 3 -16 1 -27 -5 -20 -11 -75 -5 -67 8 8 13 -41 8 -60
-6z"/>
<path d="M740 5759 c0 -17 54 -29 133 -29 38 0 39 1 22 14 -11 8 -24 11 -30 8
-21 -14 -37 -10 -31 6 5 15 5 15 -6 1 -10 -11 -21 -14 -40 -8 -16 4 -28 4 -28
1 0 -4 -5 0 -10 8 -8 13 -10 13 -10 -1z"/>
<path d="M908 5763 c6 -2 12 -11 12 -19 0 -8 9 -14 23 -13 21 0 21 1 2 9 -11
5 -15 9 -10 9 13 2 -17 21 -30 20 -5 0 -4 -3 3 -6z"/>
<path d="M1860 5765 c0 -5 4 -16 9 -24 8 -12 12 -11 28 4 17 18 17 19 -1 12
-12 -5 -23 -3 -28 5 -4 7 -8 9 -8 3z"/>
<path d="M1950 5751 c0 -7 -6 -11 -13 -8 -8 3 -20 2 -26 -3 -9 -5 -4 -7 13 -7
26 0 43 13 32 24 -3 4 -6 1 -6 -6z"/>
<path d="M1130 5740 c0 -3 -14 -7 -32 -8 -44 -4 -49 -12 -7 -12 20 0 43 6 53
13 16 12 16 14 2 14 -9 0 -16 -3 -16 -7z"/>
<path d="M1167 5737 c-4 -11 10 -14 64 -14 38 0 69 4 69 9 0 5 -24 7 -52 6
-29 -1 -58 1 -64 5 -7 4 -14 1 -17 -6z"/>
<path d="M530 5715 c0 -16 6 -25 15 -25 8 0 15 6 15 13 0 8 3 9 8 1 10 -15 71
-23 76 -10 2 6 9 0 15 -14 10 -23 11 -23 7 -2 -3 16 1 22 14 22 11 0 22 -5 26
-12 5 -7 3 -8 -6 -3 -9 5 -11 4 -6 -3 5 -9 12 -8 26 0 16 11 22 9 35 -7 12
-15 14 -16 9 -3 -5 13 -1 16 18 13 46 -8 165 -16 255 -18 83 -1 92 -3 97 -21
6 -20 7 -20 27 4 11 14 17 18 13 10 -7 -13 -5 -13 9 -1 11 9 17 10 17 2 0 -6
5 -11 11 -11 6 0 8 8 5 18 -6 16 -5 16 8 0 14 -19 32 -25 21 -8 -3 6 -2 10 4
10 5 0 12 -6 14 -12 4 -10 6 -10 6 0 1 6 9 12 19 12 10 0 24 -6 31 -12 11 -10
13 -10 7 0 -4 6 -2 12 3 12 6 0 11 -6 11 -12 0 -9 4 -8 10 2 5 8 10 11 10 6 0
-5 6 -3 14 3 11 9 16 9 22 0 5 -8 3 -9 -6 -4 -9 5 -11 4 -6 -4 6 -9 11 -9 21
-1 21 17 39 2 23 -18 -12 -15 -11 -16 4 -3 10 7 15 17 12 22 -3 5 4 9 15 9 12
0 21 -6 21 -12 0 -9 3 -10 8 -2 9 14 92 13 92 0 0 -6 5 -4 10 4 9 13 10 13 10
0 0 -13 1 -13 10 0 9 13 10 13 10 0 0 -13 2 -13 9 -1 5 8 18 12 30 8 12 -3 21
-1 21 4 0 17 20 9 21 -8 0 -15 2 -15 9 2 5 11 9 14 9 6 1 -7 7 -11 15 -8 8 3
17 1 20 -6 2 -7 5 -4 5 7 1 17 2 18 27 1 15 -9 24 -12 20 -7 -3 6 -2 13 4 17
5 3 10 1 10 -6 0 -8 4 -9 13 0 10 8 17 7 27 -2 10 -10 11 -9 5 3 -8 13 -6 13
8 1 9 -7 14 -18 10 -24 -3 -6 -1 -7 6 -3 6 4 9 11 6 16 -3 4 2 13 10 20 10 8
15 9 15 2 0 -6 9 -9 20 -7 11 2 20 -2 20 -8 0 -7 4 -6 10 3 6 10 10 11 10 3 0
-7 4 -13 10 -13 5 0 7 8 3 18 -5 14 -3 15 8 5 15 -15 33 -17 25 -4 -3 5 1 12
10 15 8 3 12 2 9 -4 -4 -7 3 -6 20 0 17 7 24 7 20 0 -3 -6 -1 -10 4 -10 6 0
11 4 11 9 0 4 11 6 25 3 14 -2 25 0 25 5 0 5 14 7 31 5 21 -3 30 -1 25 6 -6
10 37 8 54 -3 3 -2 7 6 7 17 2 21 -10 22 -117 4 -14 -3 -68 -7 -120 -11 -52
-3 -102 -8 -110 -10 -8 -2 -69 -7 -135 -11 -66 -3 -123 -8 -127 -11 -5 -2 -8
1 -8 7 0 6 -4 9 -9 6 -9 -6 -648 -7 -771 -1 -41 1 -95 6 -120 10 -71 11 -120
13 -114 4 3 -5 1 -9 -4 -9 -6 0 -13 7 -16 16 -3 9 -12 14 -20 11 -7 -3 -19 0
-26 6 -10 9 -11 9 -5 -3 6 -12 5 -13 -6 -2 -20 18 -29 15 -29 -13z"/>
<path d="M990 5730 c0 -5 12 -10 26 -10 14 0 23 4 19 10 -3 6 -15 10 -26 10
-10 0 -19 -4 -19 -10z"/>
<path d="M1310 5731 c0 -6 9 -9 20 -8 11 1 20 5 20 9 0 4 -9 8 -20 8 -11 0
-20 -4 -20 -9z"/>
<path d="M1360 5730 c0 -5 14 -7 33 -3 45 8 47 13 4 13 -20 0 -37 -4 -37 -10z"/>
<path d="M2224 5691 c0 -10 6 -18 13 -18 7 0 13 4 13 7 0 4 -6 12 -13 18 -10
8 -13 6 -13 -7z"/>
<path d="M353 360 c0 -25 2 -35 4 -22 2 12 2 32 0 45 -2 12 -4 2 -4 -23z"/>
</g>
</svg>
